<mxfile host="app.diagrams.net" modified="2024-07-18T13:43:24.714Z" agent="Mozilla/5.0 (Windows NT 10.0; Win64; x64) AppleWebKit/537.36 (KHTML, like Gecko) Chrome/126.0.0.0 Safari/537.36" version="24.7.1" etag="h5KUA-CgvIj8lCFz6fNJ" type="github">
  <diagram name="Page-1" id="pgEOk2ZZZyg2DZzEbbAK">
    <mxGraphModel>
      <root>
        <mxCell id="0" />
        <mxCell id="1" parent="0" />
      </root>
    </mxGraphModel>
  </diagram>
</mxfile>
